<svg width="20" height="20" viewBox="0 0 20 20" fill="none" xmlns="http://www.w3.org/2000/svg">
<path fill-rule="evenodd" clip-rule="evenodd" d="M11.6684 1.50749C11.6684 2.19756 11.1556 2.77933 10.4557 2.95826C14.0088 3.17034 16.818 5.84318 16.818 9.10926V13.8354C16.818 14.94 16.8678 15.8319 17.9143 16.3051C18.2286 16.4472 18.3936 16.7659 18.3128 17.0751C18.2321 17.3843 17.9269 17.6027 17.5756 17.6027H11.002C11.3166 17.8536 11.515 18.2209 11.515 18.6301C11.515 19.3867 10.8366 20 9.99981 20C9.16303 20 8.48468 19.3867 8.48468 18.6301C8.48468 18.2209 8.68307 17.8536 8.99761 17.6027H2.42415C2.07281 17.6027 1.76757 17.3843 1.68684 17.0751C1.60613 16.7659 1.7711 16.4472 2.08535 16.3051C3.13186 15.8319 3.18172 14.94 3.18172 13.8354V9.10926C3.18172 5.84256 5.99203 3.16932 9.54595 2.95814C8.84634 2.77907 8.33375 2.1974 8.33375 1.50749C8.33375 0.674928 9.08023 0 10.0011 0C10.9219 0 11.6684 0.674928 11.6684 1.50749ZM9.99984 4.3146C7.07108 4.3146 4.69686 6.46124 4.69686 9.10926V13.8354L4.6969 13.9052C4.69763 14.5153 4.69871 15.4223 4.24126 16.2328H15.7584C15.301 15.4223 15.3021 14.5153 15.3028 13.9052V13.8354V9.10926C15.3028 6.46124 12.9286 4.3146 9.99984 4.3146Z" fill="#669BBC"/>
</svg>
