<svg width="21" height="26" viewBox="0 0 21 26" fill="none" xmlns="http://www.w3.org/2000/svg">
<path d="M20.7634 17.5083L18.5769 15.3612V12.5173C18.5743 10.5519 17.8297 8.6573 16.487 7.1998C15.1443 5.7423 13.2989 4.82543 11.3077 4.6265V3H9.69231V4.6265C7.70108 4.82543 5.85571 5.7423 4.51301 7.1998C3.17031 8.6573 2.42567 10.5519 2.42308 12.5173V15.3612L0.236573 17.5083C0.0851206 17.657 2.43246e-05 17.8587 0 18.069V20.4483C0 20.6586 0.0850959 20.8604 0.236568 21.0091C0.388039 21.1578 0.593479 21.2414 0.807692 21.2414H6.46154V21.8575C6.44403 22.8636 6.80522 23.8407 7.47591 24.6015C8.14659 25.3623 9.0796 25.8534 10.0962 25.9806C10.6576 26.0353 11.2245 25.974 11.7604 25.8007C12.2963 25.6273 12.7893 25.3457 13.2077 24.9741C13.6262 24.6024 13.9607 24.1488 14.1899 23.6426C14.4191 23.1363 14.5378 22.5885 14.5385 22.0345V21.2414H20.1923C20.4065 21.2414 20.612 21.1578 20.7634 21.0091C20.9149 20.8604 21 20.6586 21 20.4483V18.069C21 17.8587 20.9149 17.657 20.7634 17.5083ZM12.9231 22.0345C12.9231 22.6655 12.6678 23.2707 12.2134 23.7169C11.759 24.1631 11.1426 24.4138 10.5 24.4138C9.85736 24.4138 9.24104 24.1631 8.78662 23.7169C8.33221 23.2707 8.07692 22.6655 8.07692 22.0345V21.2414H12.9231V22.0345ZM19.3846 19.6552H1.61538V18.3974L3.80181 16.2504C3.95329 16.1017 4.03842 15.9 4.03846 15.6897V12.5173C4.03846 10.8345 4.71923 9.22066 5.931 8.03078C7.14278 6.84089 8.78629 6.17242 10.5 6.17242C12.2137 6.17242 13.8572 6.84089 15.069 8.03078C16.2808 9.22066 16.9615 10.8345 16.9615 12.5173V15.6897C16.9616 15.9 17.0467 16.1017 17.1982 16.2504L19.3846 18.3974V19.6552Z" fill="#979797"/>
<circle cx="11" cy="6" r="6" fill="#C91611" fill-opacity="0.9"/>
<path d="M9.65483 4.36364V8H9.21449V4.82528H9.19318L8.3054 5.41477V4.96733L9.21449 4.36364H9.65483ZM11.837 8.04972C11.6287 8.04972 11.4411 8.00829 11.2741 7.92543C11.1072 7.84257 10.9735 7.72893 10.8729 7.58452C10.7723 7.4401 10.7172 7.27557 10.7077 7.09091H11.1339C11.1504 7.25545 11.225 7.39157 11.3576 7.49929C11.4914 7.60582 11.6512 7.65909 11.837 7.65909C11.9862 7.65909 12.1187 7.62417 12.2347 7.55433C12.3519 7.48449 12.4437 7.38861 12.5099 7.26669C12.5774 7.14358 12.6112 7.0045 12.6112 6.84943C12.6112 6.69081 12.5762 6.54936 12.5064 6.42507C12.4377 6.2996 12.343 6.20076 12.2223 6.12855C12.1016 6.05634 11.9637 6.01965 11.8086 6.01847C11.6973 6.01728 11.5831 6.03445 11.4659 6.06996C11.3487 6.10428 11.2522 6.14867 11.1765 6.20312L10.7646 6.15341L10.9847 4.36364H12.8739V4.75426H11.354L11.2262 5.8267H11.2475C11.3221 5.76752 11.4156 5.71839 11.5281 5.67933C11.6405 5.64027 11.7577 5.62074 11.8796 5.62074C12.1022 5.62074 12.3004 5.67401 12.4744 5.78054C12.6496 5.88589 12.7869 6.0303 12.8864 6.21378C12.987 6.39725 13.0373 6.60677 13.0373 6.84233C13.0373 7.07434 12.9852 7.28149 12.881 7.46378C12.7781 7.64489 12.636 7.78812 12.4549 7.89347C12.2738 7.99763 12.0678 8.04972 11.837 8.04972Z" fill="white"/>
</svg>
