<svg width="67" height="61" viewBox="0 0 67 61" fill="none" xmlns="http://www.w3.org/2000/svg">
<path d="M8.73555 53.5H7.7668C7.7095 53.2214 7.60924 52.9766 7.46602 52.7656C7.32539 52.5547 7.15351 52.3776 6.95039 52.2344C6.74987 52.0885 6.52721 51.9792 6.28242 51.9062C6.03763 51.8333 5.78242 51.7969 5.5168 51.7969C5.03242 51.7969 4.59362 51.9193 4.20039 52.1641C3.80976 52.4089 3.49857 52.7695 3.2668 53.2461C3.03763 53.7227 2.92305 54.3073 2.92305 55C2.92305 55.6927 3.03763 56.2773 3.2668 56.7539C3.49857 57.2305 3.80976 57.5911 4.20039 57.8359C4.59362 58.0807 5.03242 58.2031 5.5168 58.2031C5.78242 58.2031 6.03763 58.1667 6.28242 58.0937C6.52721 58.0208 6.74987 57.9128 6.95039 57.7695C7.15351 57.6237 7.32539 57.4453 7.46602 57.2344C7.60924 57.0208 7.7095 56.776 7.7668 56.5H8.73555C8.66263 56.9089 8.52982 57.2747 8.33711 57.5977C8.1444 57.9206 7.90482 58.1953 7.61836 58.4219C7.3319 58.6458 7.01029 58.8164 6.65352 58.9336C6.29935 59.0508 5.92044 59.1094 5.5168 59.1094C4.8345 59.1094 4.22773 58.9427 3.69648 58.6094C3.16523 58.276 2.74726 57.8021 2.44258 57.1875C2.13789 56.5729 1.98555 55.8437 1.98555 55C1.98555 54.1562 2.13789 53.4271 2.44258 52.8125C2.74726 52.1979 3.16523 51.724 3.69648 51.3906C4.22773 51.0573 4.8345 50.8906 5.5168 50.8906C5.92044 50.8906 6.29935 50.9492 6.65352 51.0664C7.01029 51.1836 7.3319 51.3555 7.61836 51.582C7.90482 51.806 8.1444 52.0794 8.33711 52.4023C8.52982 52.7227 8.66263 53.0885 8.73555 53.5ZM10.9879 55.3906V59H10.066V51H10.9879V53.9375H11.066C11.2066 53.6276 11.4175 53.3815 11.6988 53.1992C11.9826 53.0143 12.3602 52.9219 12.8316 52.9219C13.2405 52.9219 13.5985 53.0039 13.9058 53.168C14.2131 53.3294 14.4514 53.5781 14.6207 53.9141C14.7925 54.2474 14.8785 54.6719 14.8785 55.1875V59H13.9566V55.25C13.9566 54.7734 13.8329 54.4049 13.5855 54.1445C13.3407 53.8815 13.0009 53.75 12.566 53.75C12.2639 53.75 11.9931 53.8138 11.7535 53.9414C11.5165 54.069 11.329 54.2552 11.191 54.5C11.0556 54.7448 10.9879 55.0417 10.9879 55.3906ZM18.9706 59.125C18.3925 59.125 17.8938 58.9974 17.4745 58.7422C17.0579 58.4844 16.7362 58.125 16.5097 57.6641C16.2857 57.2005 16.1737 56.6615 16.1737 56.0469C16.1737 55.4323 16.2857 54.8906 16.5097 54.4219C16.7362 53.9505 17.0514 53.5833 17.455 53.3203C17.8612 53.0547 18.3352 52.9219 18.8769 52.9219C19.1894 52.9219 19.498 52.974 19.8027 53.0781C20.1073 53.1823 20.3847 53.3516 20.6347 53.5859C20.8847 53.8177 21.0839 54.125 21.2323 54.5078C21.3808 54.8906 21.455 55.362 21.455 55.9219V56.3125H16.83V55.5156H20.5175C20.5175 55.1771 20.4498 54.875 20.3144 54.6094C20.1816 54.3437 19.9915 54.1341 19.7441 53.9805C19.4993 53.8268 19.2102 53.75 18.8769 53.75C18.5097 53.75 18.192 53.8411 17.9237 54.0234C17.6581 54.2031 17.4537 54.4375 17.3105 54.7266C17.1672 55.0156 17.0956 55.3255 17.0956 55.6562V56.1875C17.0956 56.6406 17.1737 57.0247 17.33 57.3398C17.4889 57.6523 17.7089 57.8906 17.9902 58.0547C18.2714 58.2161 18.5982 58.2969 18.9706 58.2969C19.2128 58.2969 19.4316 58.263 19.6269 58.1953C19.8248 58.125 19.9954 58.0208 20.1386 57.8828C20.2818 57.7422 20.3925 57.5677 20.4706 57.3594L21.3612 57.6094C21.2675 57.9115 21.1099 58.1771 20.8886 58.4062C20.6672 58.6328 20.3938 58.8099 20.0683 58.9375C19.7428 59.0625 19.3769 59.125 18.9706 59.125ZM25.1848 59.125C24.6223 59.125 24.138 58.9922 23.7317 58.7266C23.3255 58.4609 23.013 58.0951 22.7942 57.6289C22.5755 57.1628 22.4661 56.6302 22.4661 56.0312C22.4661 55.4219 22.5781 54.8841 22.802 54.418C23.0286 53.9492 23.3437 53.5833 23.7473 53.3203C24.1536 53.0547 24.6276 52.9219 25.1692 52.9219C25.5911 52.9219 25.9713 53 26.3098 53.1562C26.6484 53.3125 26.9257 53.5312 27.1419 53.8125C27.358 54.0937 27.4921 54.4219 27.5442 54.7969H26.6223C26.552 54.5234 26.3958 54.2812 26.1536 54.0703C25.914 53.8568 25.5911 53.75 25.1848 53.75C24.8255 53.75 24.5104 53.8437 24.2395 54.0312C23.9713 54.2161 23.7617 54.4779 23.6106 54.8164C23.4622 55.1523 23.388 55.5469 23.388 56C23.388 56.4635 23.4609 56.8672 23.6067 57.2109C23.7552 57.5547 23.9635 57.8216 24.2317 58.0117C24.5026 58.2018 24.8203 58.2969 25.1848 58.2969C25.4244 58.2969 25.6419 58.2552 25.8372 58.1719C26.0325 58.0885 26.1979 57.9688 26.3333 57.8125C26.4687 57.6562 26.5651 57.4687 26.6223 57.25H27.5442C27.4921 57.6042 27.3632 57.9232 27.1575 58.207C26.9544 58.4883 26.6848 58.7122 26.3489 58.8789C26.0156 59.043 25.6276 59.125 25.1848 59.125ZM29.6412 56.8125L29.6256 55.6719H29.8131L32.4381 53H33.5787L30.7819 55.8281H30.7037L29.6412 56.8125ZM28.7819 59V51H29.7037V59H28.7819ZM32.5944 59L30.2506 56.0312L30.9069 55.3906L33.7662 59H32.5944ZM37.764 59V51H40.4671C41.0921 51 41.6052 51.1068 42.0062 51.3203C42.4073 51.5312 42.7041 51.8216 42.8968 52.1914C43.0895 52.5612 43.1859 52.9818 43.1859 53.4531C43.1859 53.9245 43.0895 54.3424 42.8968 54.707C42.7041 55.0716 42.4086 55.3581 42.0101 55.5664C41.6117 55.7721 41.1026 55.875 40.4828 55.875H38.2953V55H40.4515C40.8786 55 41.2224 54.9375 41.4828 54.8125C41.7458 54.6875 41.9359 54.5104 42.0531 54.2812C42.1729 54.0495 42.2328 53.7734 42.2328 53.4531C42.2328 53.1328 42.1729 52.8529 42.0531 52.6133C41.9333 52.3737 41.7419 52.1888 41.4789 52.0586C41.2158 51.9258 40.8682 51.8594 40.4359 51.8594H38.7328V59H37.764ZM41.5296 55.4062L43.4984 59H42.3734L40.4359 55.4062H41.5296ZM46.3308 59.1406C45.9506 59.1406 45.6055 59.069 45.2956 58.9258C44.9857 58.7799 44.7396 58.5703 44.5573 58.2969C44.3751 58.0208 44.2839 57.6875 44.2839 57.2969C44.2839 56.9531 44.3516 56.6745 44.487 56.4609C44.6224 56.2448 44.8034 56.0755 45.03 55.9531C45.2566 55.8307 45.5066 55.7396 45.78 55.6797C46.056 55.6172 46.3334 55.5677 46.612 55.5313C46.9766 55.4844 47.2722 55.4492 47.4987 55.4258C47.7279 55.3997 47.8946 55.3568 47.9987 55.2969C48.1055 55.237 48.1589 55.1328 48.1589 54.9844V54.9531C48.1589 54.5677 48.0534 54.2682 47.8425 54.0547C47.6342 53.8411 47.3178 53.7344 46.8933 53.7344C46.4532 53.7344 46.1081 53.8307 45.8581 54.0234C45.6081 54.2161 45.4323 54.4219 45.3308 54.6406L44.4558 54.3281C44.612 53.9635 44.8204 53.6797 45.0808 53.4766C45.3438 53.2708 45.6303 53.1276 45.9402 53.0469C46.2527 52.9635 46.5599 52.9219 46.862 52.9219C47.0547 52.9219 47.2761 52.9453 47.5261 52.9922C47.7787 53.0365 48.0222 53.1289 48.2566 53.2695C48.4935 53.4102 48.6902 53.6224 48.8464 53.9062C49.0027 54.1901 49.0808 54.5703 49.0808 55.0469V59H48.1589V58.1875H48.112C48.0495 58.3177 47.9454 58.457 47.7995 58.6055C47.6537 58.7539 47.4597 58.8802 47.2175 58.9844C46.9753 59.0885 46.6797 59.1406 46.3308 59.1406ZM46.4714 58.3125C46.836 58.3125 47.1433 58.2409 47.3933 58.0977C47.6459 57.9544 47.836 57.7695 47.9636 57.543C48.0938 57.3164 48.1589 57.0781 48.1589 56.8281V55.9844C48.1198 56.0312 48.0339 56.0742 47.9011 56.1133C47.7709 56.1497 47.6198 56.1823 47.448 56.2109C47.2787 56.237 47.1133 56.2604 46.9519 56.2812C46.793 56.2995 46.6641 56.3151 46.5652 56.3281C46.3256 56.3594 46.1016 56.4102 45.8933 56.4805C45.6876 56.5482 45.5209 56.651 45.3933 56.7891C45.2683 56.9245 45.2058 57.1094 45.2058 57.3437C45.2058 57.6641 45.3243 57.9062 45.5612 58.0703C45.8008 58.2318 46.1042 58.3125 46.4714 58.3125ZM53.2628 53V53.7812H50.1534V53H53.2628ZM51.0596 51.5625H51.9815V57.2812C51.9815 57.5417 52.0193 57.737 52.0948 57.8672C52.1729 57.9948 52.2719 58.0807 52.3917 58.125C52.5141 58.1667 52.643 58.1875 52.7784 58.1875C52.88 58.1875 52.9633 58.1823 53.0284 58.1719C53.0935 58.1589 53.1456 58.1484 53.1846 58.1406L53.3721 58.9687C53.3096 58.9922 53.2224 59.0156 53.1104 59.0391C52.9984 59.0651 52.8565 59.0781 52.6846 59.0781C52.4242 59.0781 52.169 59.0221 51.919 58.9102C51.6716 58.7982 51.4659 58.6276 51.3018 58.3984C51.1404 58.1693 51.0596 57.8802 51.0596 57.5312V51.5625ZM56.9907 59.125C56.4125 59.125 55.9138 58.9974 55.4946 58.7422C55.0779 58.4844 54.7563 58.125 54.5297 57.6641C54.3058 57.2005 54.1938 56.6615 54.1938 56.0469C54.1938 55.4323 54.3058 54.8906 54.5297 54.4219C54.7563 53.9505 55.0714 53.5833 55.475 53.3203C55.8813 53.0547 56.3552 52.9219 56.8969 52.9219C57.2094 52.9219 57.518 52.974 57.8227 53.0781C58.1274 53.1823 58.4047 53.3516 58.6547 53.5859C58.9047 53.8177 59.1039 54.125 59.2524 54.5078C59.4008 54.8906 59.475 55.362 59.475 55.9219V56.3125H54.85V55.5156H58.5375C58.5375 55.1771 58.4698 54.875 58.3344 54.6094C58.2016 54.3437 58.0115 54.1341 57.7641 53.9805C57.5193 53.8268 57.2302 53.75 56.8969 53.75C56.5297 53.75 56.212 53.8411 55.9438 54.0234C55.6782 54.2031 55.4737 54.4375 55.3305 54.7266C55.1873 55.0156 55.1157 55.3255 55.1157 55.6562V56.1875C55.1157 56.6406 55.1938 57.0247 55.35 57.3398C55.5089 57.6523 55.7289 57.8906 56.0102 58.0547C56.2914 58.2161 56.6183 58.2969 56.9907 58.2969C57.2328 58.2969 57.4516 58.263 57.6469 58.1953C57.8448 58.125 58.0154 58.0208 58.1586 57.8828C58.3019 57.7422 58.4125 57.5677 58.4907 57.3594L59.3813 57.6094C59.2875 57.9115 59.13 58.1771 58.9086 58.4062C58.6873 58.6328 58.4138 58.8099 58.0883 58.9375C57.7628 59.0625 57.3969 59.125 56.9907 59.125ZM65.0174 54.3437L64.1893 54.5781C64.1372 54.4401 64.0604 54.306 63.9588 54.1758C63.8598 54.043 63.7244 53.9336 63.5525 53.8477C63.3807 53.7617 63.1606 53.7187 62.8924 53.7187C62.5252 53.7187 62.2192 53.8034 61.9744 53.9727C61.7322 54.1393 61.6111 54.3516 61.6111 54.6094C61.6111 54.8385 61.6945 55.0195 61.8611 55.1523C62.0278 55.2852 62.2882 55.3958 62.6424 55.4844L63.533 55.7031C64.0695 55.8333 64.4692 56.0326 64.7322 56.3008C64.9952 56.5664 65.1268 56.9089 65.1268 57.3281C65.1268 57.6719 65.0278 57.9792 64.8299 58.25C64.6346 58.5208 64.3611 58.7344 64.0096 58.8906C63.658 59.0469 63.2492 59.125 62.783 59.125C62.171 59.125 61.6645 58.9922 61.2635 58.7266C60.8624 58.4609 60.6085 58.0729 60.5018 57.5625L61.3768 57.3437C61.4601 57.6667 61.6176 57.9089 61.8494 58.0703C62.0838 58.2318 62.3898 58.3125 62.7674 58.3125C63.1971 58.3125 63.5382 58.2214 63.7908 58.0391C64.046 57.8542 64.1736 57.6328 64.1736 57.375C64.1736 57.1667 64.1007 56.9922 63.9549 56.8516C63.8091 56.7083 63.5851 56.6016 63.283 56.5312L62.283 56.2969C61.7335 56.1667 61.3299 55.9648 61.0721 55.6914C60.8169 55.4154 60.6893 55.0703 60.6893 54.6562C60.6893 54.3177 60.7843 54.0182 60.9744 53.7578C61.1671 53.4974 61.4288 53.293 61.7596 53.1445C62.0929 52.9961 62.4705 52.9219 62.8924 52.9219C63.4861 52.9219 63.9523 53.0521 64.2908 53.3125C64.632 53.5729 64.8742 53.9167 65.0174 54.3437Z" fill="#898A8D"/>
<path d="M33 25V34" stroke="#C1121F" stroke-linecap="round" stroke-linejoin="round"/>
<path d="M39 23C42.3137 23 45 20.3137 45 17C45 13.6863 42.3137 11 39 11C35.6863 11 33 13.6863 33 17C33 20.3137 35.6863 23 39 23Z" stroke="#C1121F" stroke-linecap="round" stroke-linejoin="round"/>
<path d="M33 35C36.3137 35 39 32.3137 39 29C39 25.6863 36.3137 23 33 23C29.6863 23 27 25.6863 27 29C27 32.3137 29.6863 35 33 35Z" stroke="#C1121F" stroke-linecap="round" stroke-linejoin="round"/>
<path d="M40.0767 15.8281L39.7173 16.6094H34.6235L34.9048 15.8281H40.0767ZM39.4048 17.3906L39.0454 18.1719H34.6235L34.9048 17.3906H39.4048ZM40.9985 13.7188L40.6235 14.5312C40.4569 14.3802 40.2811 14.25 40.0962 14.1406C39.9113 14.0312 39.7173 13.9466 39.5142 13.8867C39.311 13.8268 39.0975 13.7969 38.8735 13.7969C38.4308 13.7969 38.0324 13.9193 37.6782 14.1641C37.3241 14.4089 37.0441 14.7695 36.8384 15.2461C36.6326 15.7227 36.5298 16.3073 36.5298 17C36.5298 17.6927 36.6326 18.2773 36.8384 18.7539C37.0441 19.2305 37.3241 19.5911 37.6782 19.8359C38.0324 20.0807 38.4308 20.2031 38.8735 20.2031C39.1027 20.2031 39.3188 20.1732 39.522 20.1133C39.7277 20.0534 39.9191 19.9714 40.0962 19.8672C40.2759 19.763 40.4412 19.6458 40.5923 19.5156L40.9829 20.3281C40.7095 20.5859 40.3892 20.7812 40.022 20.9141C39.6548 21.0443 39.272 21.1094 38.8735 21.1094C38.2329 21.1094 37.6652 20.9427 37.1704 20.6094C36.6782 20.276 36.2915 19.8021 36.0103 19.1875C35.7316 18.5729 35.5923 17.8437 35.5923 17C35.5923 16.1562 35.7316 15.4271 36.0103 14.8125C36.2915 14.1979 36.6782 13.724 37.1704 13.3906C37.6652 13.0573 38.2329 12.8906 38.8735 12.8906C39.2876 12.8906 39.6743 12.9622 40.0337 13.1055C40.3957 13.2487 40.7173 13.4531 40.9985 13.7188Z" fill="#C1121F"/>
<path d="M25 23C28.3137 23 31 20.3137 31 17C31 13.6863 28.3137 11 25 11C21.6863 11 19 13.6863 19 17C19 20.3137 21.6863 23 25 23Z" stroke="#C1121F" stroke-linecap="round" stroke-linejoin="round"/>
<path d="M23.7212 13L25.7681 17.4531L25.0181 17.7656L22.6431 13H23.7212ZM25.2368 17.4531L27.2837 13H28.3618L25.9868 17.7656L25.2368 17.4531ZM25.9868 16.7969V21H25.0181V16.7969H25.9868ZM27.7368 17.0156V17.7187H23.2681V17.0156H27.7368ZM27.7368 18.5625V19.2656H23.2681V18.5625H27.7368Z" fill="#C1121F"/>
<path d="M25 0.5H40C48.0081 0.5 54.5 6.99187 54.5 15V31C54.5 39.0081 48.0081 45.5 40 45.5H25C16.9919 45.5 10.5 39.0081 10.5 31V15C10.5 6.99187 16.9919 0.5 25 0.5Z" stroke="#DADADA"/>
<path d="M34.5133 26.2372C32.9289 25.4124 31.7447 25.7531 31.3526 26.5062C30.9605 27.2593 31.3606 28.4248 32.945 29.2496C34.5293 30.0745 34.9294 31.24 34.5374 31.9931C34.1453 32.7461 32.9611 33.0868 31.3767 32.262" stroke="#C1121F" stroke-linecap="round" stroke-linejoin="round"/>
<path d="M25 0.5H40C48.0081 0.5 54.5 6.99187 54.5 15V31C54.5 39.0081 48.0081 45.5 40 45.5H25C16.9919 45.5 10.5 39.0081 10.5 31V15C10.5 6.99187 16.9919 0.5 25 0.5Z" stroke="#DADADA"/>
</svg>
