<svg width="67" height="64" viewBox="0 0 67 64" fill="none" xmlns="http://www.w3.org/2000/svg">
<path d="M5.88607 61.125C5.38607 61.125 4.94467 60.9987 4.56186 60.7461C4.17904 60.4909 3.87956 60.1315 3.66342 59.668C3.44727 59.2018 3.3392 58.651 3.3392 58.0156C3.3392 57.3854 3.44727 56.8385 3.66342 56.375C3.87956 55.9115 4.18034 55.5534 4.56576 55.3008C4.95118 55.0482 5.39649 54.9219 5.9017 54.9219C6.29232 54.9219 6.60092 54.987 6.82748 55.1172C7.05665 55.2448 7.23113 55.3906 7.35092 55.5547C7.47331 55.7161 7.56837 55.849 7.63607 55.9531H7.7142V53H8.63607V61H7.74545V60.0781H7.63607C7.56837 60.1875 7.47201 60.3255 7.34701 60.4922C7.22201 60.6562 7.04363 60.8034 6.81186 60.9336C6.58008 61.0612 6.27149 61.125 5.88607 61.125ZM6.01107 60.2969C6.38087 60.2969 6.69337 60.2005 6.94857 60.0078C7.20378 59.8125 7.39779 59.543 7.53061 59.1992C7.66342 58.8529 7.72982 58.4531 7.72982 58C7.72982 57.5521 7.66472 57.1602 7.53451 56.8242C7.4043 56.4857 7.2116 56.2227 6.95639 56.0352C6.70118 55.8451 6.38607 55.75 6.01107 55.75C5.62045 55.75 5.29493 55.8503 5.03451 56.0508C4.7767 56.2487 4.58269 56.5182 4.45248 56.8594C4.32488 57.1979 4.26107 57.5781 4.26107 58C4.26107 58.4271 4.32618 58.8151 4.45639 59.1641C4.5892 59.5104 4.78451 59.7865 5.04232 59.9922C5.30274 60.1953 5.62566 60.2969 6.01107 60.2969ZM10.3425 61V55H11.2644V61H10.3425ZM10.8112 54C10.6315 54 10.4766 53.9388 10.3464 53.8164C10.2188 53.694 10.155 53.5469 10.155 53.375C10.155 53.2031 10.2188 53.056 10.3464 52.9336C10.4766 52.8112 10.6315 52.75 10.8112 52.75C10.9909 52.75 11.1446 52.8112 11.2722 52.9336C11.4024 53.056 11.4675 53.2031 11.4675 53.375C11.4675 53.5469 11.4024 53.694 11.2722 53.8164C11.1446 53.9388 10.9909 54 10.8112 54ZM15.2647 63.375C14.8194 63.375 14.4366 63.3177 14.1163 63.2031C13.796 63.0911 13.529 62.9427 13.3155 62.7578C13.1046 62.5755 12.9366 62.3802 12.8116 62.1719L13.546 61.6563C13.6293 61.7656 13.7348 61.8906 13.8624 62.0312C13.99 62.1745 14.1644 62.2982 14.3858 62.4023C14.6098 62.5091 14.9027 62.5625 15.2647 62.5625C15.7491 62.5625 16.1488 62.4453 16.4639 62.2109C16.779 61.9766 16.9366 61.6094 16.9366 61.1094V59.8906H16.8585C16.7907 60 16.6944 60.1354 16.5694 60.2969C16.447 60.4557 16.2699 60.5977 16.0381 60.7227C15.809 60.8451 15.4991 60.9062 15.1085 60.9062C14.6241 60.9062 14.1892 60.7917 13.8038 60.5625C13.421 60.3333 13.1176 60 12.8936 59.5625C12.6723 59.125 12.5616 58.5937 12.5616 57.9687C12.5616 57.3542 12.6697 56.819 12.8858 56.3633C13.1019 55.9049 13.4027 55.5508 13.7881 55.3008C14.1736 55.0482 14.6189 54.9219 15.1241 54.9219C15.5147 54.9219 15.8246 54.987 16.0538 55.1172C16.2855 55.2448 16.4626 55.3906 16.585 55.5547C16.71 55.7161 16.8064 55.849 16.8741 55.9531H16.9678V55H17.8585V61.1719C17.8585 61.6875 17.7413 62.1068 17.5069 62.4297C17.2751 62.7552 16.9626 62.9935 16.5694 63.1445C16.1788 63.2982 15.7439 63.375 15.2647 63.375ZM15.2335 60.0781C15.6032 60.0781 15.9157 59.9935 16.171 59.8242C16.4262 59.6549 16.6202 59.4115 16.753 59.0938C16.8858 58.776 16.9522 58.3958 16.9522 57.9531C16.9522 57.5208 16.8871 57.1393 16.7569 56.8086C16.6267 56.4779 16.434 56.2187 16.1788 56.0312C15.9236 55.8437 15.6085 55.75 15.2335 55.75C14.8428 55.75 14.5173 55.849 14.2569 56.0469C13.9991 56.2448 13.8051 56.5104 13.6749 56.8438C13.5473 57.1771 13.4835 57.5469 13.4835 57.9531C13.4835 58.3698 13.5486 58.7383 13.6788 59.0586C13.8116 59.3763 14.0069 59.6263 14.2647 59.8086C14.5251 59.9883 14.848 60.0781 15.2335 60.0781ZM19.436 61V55H20.3578V61H19.436ZM19.9047 54C19.725 54 19.5701 53.9388 19.4399 53.8164C19.3123 53.694 19.2485 53.5469 19.2485 53.375C19.2485 53.2031 19.3123 53.056 19.4399 52.9336C19.5701 52.8112 19.725 52.75 19.9047 52.75C20.0844 52.75 20.238 52.8112 20.3656 52.9336C20.4959 53.056 20.561 53.2031 20.561 53.375C20.561 53.5469 20.4959 53.694 20.3656 53.8164C20.238 53.9388 20.0844 54 19.9047 54ZM22.0613 61V53H24.7644C25.392 53 25.9051 53.1133 26.3035 53.3398C26.7045 53.5638 27.0014 53.8672 27.1941 54.25C27.3868 54.6328 27.4832 55.0599 27.4832 55.5312C27.4832 56.0026 27.3868 56.431 27.1941 56.8164C27.004 57.2018 26.7097 57.5091 26.3113 57.7383C25.9129 57.9648 25.4025 58.0781 24.7801 58.0781H22.8426V57.2188H24.7488C25.1785 57.2188 25.5235 57.1445 25.784 56.9961C26.0444 56.8477 26.2332 56.6471 26.3504 56.3945C26.4702 56.1393 26.5301 55.8516 26.5301 55.5312C26.5301 55.2109 26.4702 54.9245 26.3504 54.6719C26.2332 54.4193 26.0431 54.2214 25.7801 54.0781C25.517 53.9323 25.1681 53.8594 24.7332 53.8594H23.0301V61H22.0613ZM31.1818 61.125C30.6401 61.125 30.1649 60.9961 29.756 60.7383C29.3497 60.4805 29.032 60.1198 28.8029 59.6562C28.5763 59.1927 28.463 58.651 28.463 58.0312C28.463 57.4062 28.5763 56.8607 28.8029 56.3945C29.032 55.9284 29.3497 55.5664 29.756 55.3086C30.1649 55.0508 30.6401 54.9219 31.1818 54.9219C31.7234 54.9219 32.1974 55.0508 32.6037 55.3086C33.0125 55.5664 33.3302 55.9284 33.5568 56.3945C33.7859 56.8607 33.9005 57.4062 33.9005 58.0312C33.9005 58.651 33.7859 59.1927 33.5568 59.6562C33.3302 60.1198 33.0125 60.4805 32.6037 60.7383C32.1974 60.9961 31.7234 61.125 31.1818 61.125ZM31.1818 60.2969C31.5932 60.2969 31.9318 60.1914 32.1974 59.9805C32.463 59.7695 32.6596 59.4922 32.7872 59.1484C32.9149 58.8047 32.9787 58.4323 32.9787 58.0312C32.9787 57.6302 32.9149 57.2565 32.7872 56.9102C32.6596 56.5638 32.463 56.2839 32.1974 56.0703C31.9318 55.8568 31.5932 55.75 31.1818 55.75C30.7703 55.75 30.4318 55.8568 30.1662 56.0703C29.9005 56.2839 29.7039 56.5638 29.5763 56.9102C29.4487 57.2565 29.3849 57.6302 29.3849 58.0312C29.3849 58.4323 29.4487 58.8047 29.5763 59.1484C29.7039 59.4922 29.9005 59.7695 30.1662 59.9805C30.4318 60.1914 30.7703 60.2969 31.1818 60.2969ZM35.1978 61V55H36.0884V55.9062H36.1509C36.2603 55.6094 36.4582 55.3685 36.7446 55.1836C37.0311 54.9987 37.354 54.9062 37.7134 54.9062C37.7811 54.9062 37.8657 54.9076 37.9673 54.9102C38.0688 54.9128 38.1457 54.9167 38.1978 54.9219V55.8594C38.1665 55.8516 38.0949 55.8398 37.9829 55.8242C37.8735 55.806 37.7576 55.7969 37.6353 55.7969C37.3436 55.7969 37.0832 55.8581 36.854 55.9805C36.6274 56.1003 36.4478 56.2669 36.3149 56.4805C36.1847 56.6914 36.1196 56.9323 36.1196 57.2031V61H35.1978ZM42.1659 55V55.7812H39.0565V55H42.1659ZM39.9628 53.5625H40.8846V59.2812C40.8846 59.5417 40.9224 59.737 40.9979 59.8672C41.076 59.9948 41.175 60.0807 41.2948 60.125C41.4172 60.1667 41.5461 60.1875 41.6815 60.1875C41.7831 60.1875 41.8664 60.1823 41.9315 60.1719C41.9966 60.1589 42.0487 60.1484 42.0878 60.1406L42.2753 60.9687C42.2128 60.9922 42.1255 61.0156 42.0135 61.0391C41.9016 61.0651 41.7596 61.0781 41.5878 61.0781C41.3273 61.0781 41.0721 61.0221 40.8221 60.9102C40.5747 60.7982 40.369 60.6276 40.2049 60.3984C40.0435 60.1693 39.9628 59.8802 39.9628 59.5312V53.5625ZM46.1145 55V55.7812H42.8801V55H46.1145ZM43.8488 61V54.1719C43.8488 53.8281 43.9296 53.5417 44.091 53.3125C44.2525 53.0833 44.4621 52.9115 44.7199 52.7969C44.9778 52.6823 45.2499 52.625 45.5363 52.625C45.7629 52.625 45.9478 52.6432 46.091 52.6797C46.2343 52.7161 46.341 52.75 46.4113 52.7812L46.1457 53.5781C46.0988 53.5625 46.0337 53.543 45.9504 53.5195C45.8697 53.4961 45.7629 53.4844 45.6301 53.4844C45.3254 53.4844 45.1054 53.5612 44.9699 53.7148C44.8371 53.8685 44.7707 54.0937 44.7707 54.3906V61H43.8488ZM49.4869 61.125C48.9452 61.125 48.47 60.9961 48.0611 60.7383C47.6549 60.4805 47.3372 60.1198 47.108 59.6562C46.8814 59.1927 46.7681 58.651 46.7681 58.0312C46.7681 57.4062 46.8814 56.8607 47.108 56.3945C47.3372 55.9284 47.6549 55.5664 48.0611 55.3086C48.47 55.0508 48.9452 54.9219 49.4869 54.9219C50.0286 54.9219 50.5025 55.0508 50.9088 55.3086C51.3176 55.5664 51.6353 55.9284 51.8619 56.3945C52.0911 56.8607 52.2056 57.4062 52.2056 58.0312C52.2056 58.651 52.0911 59.1927 51.8619 59.6562C51.6353 60.1198 51.3176 60.4805 50.9088 60.7383C50.5025 60.9961 50.0286 61.125 49.4869 61.125ZM49.4869 60.2969C49.8984 60.2969 50.2369 60.1914 50.5025 59.9805C50.7681 59.7695 50.9648 59.4922 51.0924 59.1484C51.22 58.8047 51.2838 58.4323 51.2838 58.0312C51.2838 57.6302 51.22 57.2565 51.0924 56.9102C50.9648 56.5638 50.7681 56.2839 50.5025 56.0703C50.2369 55.8568 49.8984 55.75 49.4869 55.75C49.0754 55.75 48.7369 55.8568 48.4713 56.0703C48.2056 56.2839 48.009 56.5638 47.8814 56.9102C47.7538 57.2565 47.69 57.6302 47.69 58.0312C47.69 58.4323 47.7538 58.8047 47.8814 59.1484C48.009 59.4922 48.2056 59.7695 48.4713 59.9805C48.7369 60.1914 49.0754 60.2969 49.4869 60.2969ZM54.4247 53V61H53.5029V53H54.4247ZM56.0032 61V55H56.9251V61H56.0032ZM56.472 54C56.2923 54 56.1373 53.9388 56.0071 53.8164C55.8795 53.694 55.8157 53.5469 55.8157 53.375C55.8157 53.2031 55.8795 53.056 56.0071 52.9336C56.1373 52.8112 56.2923 52.75 56.472 52.75C56.6517 52.75 56.8053 52.8112 56.9329 52.9336C57.0631 53.056 57.1282 53.2031 57.1282 53.375C57.1282 53.5469 57.0631 53.694 56.9329 53.8164C56.8053 53.9388 56.6517 54 56.472 54ZM60.9411 61.125C60.3994 61.125 59.9241 60.9961 59.5153 60.7383C59.109 60.4805 58.7913 60.1198 58.5622 59.6562C58.3356 59.1927 58.2223 58.651 58.2223 58.0312C58.2223 57.4062 58.3356 56.8607 58.5622 56.3945C58.7913 55.9284 59.109 55.5664 59.5153 55.3086C59.9241 55.0508 60.3994 54.9219 60.9411 54.9219C61.4827 54.9219 61.9567 55.0508 62.3629 55.3086C62.7718 55.5664 63.0895 55.9284 63.3161 56.3945C63.5452 56.8607 63.6598 57.4062 63.6598 58.0312C63.6598 58.651 63.5452 59.1927 63.3161 59.6562C63.0895 60.1198 62.7718 60.4805 62.3629 60.7383C61.9567 60.9961 61.4827 61.125 60.9411 61.125ZM60.9411 60.2969C61.3525 60.2969 61.6911 60.1914 61.9567 59.9805C62.2223 59.7695 62.4189 59.4922 62.5465 59.1484C62.6741 58.8047 62.7379 58.4323 62.7379 58.0312C62.7379 57.6302 62.6741 57.2565 62.5465 56.9102C62.4189 56.5638 62.2223 56.2839 61.9567 56.0703C61.6911 55.8568 61.3525 55.75 60.9411 55.75C60.5296 55.75 60.1911 55.8568 59.9254 56.0703C59.6598 56.2839 59.4632 56.5638 59.3356 56.9102C59.208 57.2565 59.1442 57.6302 59.1442 58.0312C59.1442 58.4323 59.208 58.8047 59.3356 59.1484C59.4632 59.4922 59.6598 59.7695 59.9254 59.9805C60.1911 60.1914 60.5296 60.2969 60.9411 60.2969Z" fill="#898A8D"/>
<path d="M24 0.5H39C47.0081 0.5 53.5 6.99187 53.5 15V31C53.5 39.0081 47.0081 45.5 39 45.5H24C15.9919 45.5 9.5 39.0081 9.5 31V15C9.5 6.99187 15.9919 0.5 24 0.5Z" stroke="#DADADA"/>
<path d="M24.5 11.25H38L42.5 15.75V33.75H24.5V11.25Z" stroke="#C1121F" stroke-linecap="round" stroke-linejoin="round"/>
<path d="M38 11.25V15.75H42.5" stroke="#C1121F" stroke-linecap="round" stroke-linejoin="round"/>
<path d="M40.25 27H26.75V31.5H40.25V27Z" stroke="#C1121F" stroke-linecap="round" stroke-linejoin="round"/>
<path d="M31.25 27V31.5" stroke="#C1121F" stroke-linecap="round" stroke-linejoin="round"/>
<path d="M35.75 27V31.5" stroke="#C1121F" stroke-linecap="round" stroke-linejoin="round"/>
<path d="M31.0138 28.2102V15.483H31.4961V28.2102H31.0138ZM33.8626 19.3011C33.8095 18.6681 33.551 18.156 33.087 17.7649C32.6263 17.3738 32.0297 17.1783 31.2972 17.1783C30.8034 17.1783 30.3642 17.2694 29.9798 17.4517C29.5953 17.634 29.2937 17.8826 29.0749 18.1974C28.8562 18.5123 28.7468 18.8736 28.7468 19.2812C28.7468 19.5431 28.7965 19.7801 28.896 19.9922C28.9987 20.201 29.1429 20.3883 29.3285 20.554C29.5141 20.7164 29.7345 20.8589 29.9897 20.9815C30.2449 21.1042 30.5266 21.2119 30.8349 21.3047L31.9485 21.6328C32.3297 21.7488 32.681 21.883 33.0025 22.0355C33.3273 22.188 33.609 22.3703 33.8477 22.5824C34.0896 22.7912 34.2769 23.0365 34.4094 23.3182C34.5453 23.5999 34.6133 23.9247 34.6133 24.2926C34.6133 24.8295 34.4741 25.3101 34.1957 25.7344C33.9206 26.1586 33.5278 26.4934 33.0174 26.7386C32.5103 26.9806 31.9121 27.1016 31.2227 27.1016C30.5664 27.1016 29.9947 26.9905 29.5075 26.7685C29.0236 26.5464 28.6407 26.2382 28.359 25.8438C28.0773 25.446 27.9182 24.9886 27.8817 24.4716H28.5181C28.5513 24.8925 28.6855 25.2571 28.9208 25.5653C29.1594 25.8703 29.476 26.1056 29.8704 26.2713C30.2648 26.437 30.7156 26.5199 31.2227 26.5199C31.7695 26.5199 32.2518 26.4271 32.6694 26.2415C33.087 26.0526 33.4135 25.7907 33.6488 25.456C33.8841 25.1212 34.0018 24.7318 34.0018 24.2876C34.0018 23.9297 33.9173 23.6231 33.7482 23.3679C33.5792 23.1127 33.329 22.8923 32.9975 22.7067C32.6694 22.5211 32.2617 22.3554 31.7745 22.2095L30.5863 21.8516C29.7908 21.6096 29.1826 21.2798 28.7617 20.8622C28.3441 20.4446 28.1353 19.9242 28.1353 19.3011C28.1353 18.7775 28.2745 18.3134 28.5529 17.9091C28.8313 17.5014 29.2092 17.1816 29.6864 16.9496C30.167 16.7176 30.7089 16.6016 31.3121 16.6016C31.9187 16.6016 32.454 16.7192 32.918 16.9545C33.382 17.1866 33.7499 17.5064 34.0217 17.9141C34.2934 18.3184 34.4442 18.7808 34.4741 19.3011H33.8626Z" fill="#C1121F"/>
</svg>
