<svg width="67" height="61" viewBox="0 0 67 61" fill="none" xmlns="http://www.w3.org/2000/svg">
<path d="M24.2931 59V51H29.1212V51.8594H25.2619V54.5625H28.8712V55.4219H25.2619V58.1406H29.1837V59H24.2931ZM30.7573 59V51H33.4604C34.0881 51 34.6011 51.1133 34.9995 51.3398C35.4006 51.5638 35.6974 51.8672 35.8901 52.25C36.0828 52.6328 36.1792 53.0599 36.1792 53.5312C36.1792 54.0026 36.0828 54.431 35.8901 54.8164C35.7 55.2018 35.4058 55.5091 35.0073 55.7383C34.6089 55.9648 34.0985 56.0781 33.4761 56.0781H31.5386V55.2188H33.4448C33.8745 55.2188 34.2196 55.1445 34.48 54.9961C34.7404 54.8477 34.9292 54.6471 35.0464 54.3945C35.1662 54.1393 35.2261 53.8516 35.2261 53.5312C35.2261 53.2109 35.1662 52.9245 35.0464 52.6719C34.9292 52.4193 34.7391 52.2214 34.4761 52.0781C34.2131 51.9323 33.8641 51.8594 33.4292 51.8594H31.7261V59H30.7573ZM42.0047 53C41.9579 52.6042 41.7678 52.2969 41.4344 52.0781C41.1011 51.8594 40.6922 51.75 40.2079 51.75C39.8537 51.75 39.5438 51.8073 39.2782 51.9219C39.0152 52.0365 38.8094 52.194 38.661 52.3945C38.5152 52.5951 38.4422 52.8229 38.4422 53.0781C38.4422 53.2917 38.493 53.4753 38.5946 53.6289C38.6988 53.7799 38.8316 53.9062 38.993 54.0078C39.1545 54.1068 39.3238 54.1888 39.5008 54.2539C39.6779 54.3164 39.8407 54.3672 39.9891 54.4062L40.8016 54.625C41.01 54.6797 41.2417 54.7552 41.4969 54.8516C41.7547 54.9479 42.0008 55.0794 42.2352 55.2461C42.4722 55.4102 42.6675 55.6211 42.8212 55.8789C42.9748 56.1367 43.0516 56.4531 43.0516 56.8281C43.0516 57.2604 42.9383 57.651 42.7118 58C42.4878 58.349 42.1597 58.6263 41.7274 58.832C41.2977 59.0378 40.7756 59.1406 40.161 59.1406C39.5881 59.1406 39.092 59.0482 38.6727 58.8633C38.256 58.6784 37.9279 58.4206 37.6883 58.0898C37.4514 57.7591 37.3172 57.375 37.286 56.9375H38.286C38.312 57.2396 38.4136 57.4896 38.5907 57.6875C38.7704 57.8828 38.9969 58.0286 39.2704 58.125C39.5464 58.2187 39.8433 58.2656 40.161 58.2656C40.5308 58.2656 40.8628 58.2057 41.1571 58.0859C41.4514 57.9635 41.6844 57.7943 41.8563 57.5781C42.0282 57.3594 42.1141 57.1042 42.1141 56.8125C42.1141 56.5469 42.0399 56.3307 41.8915 56.1641C41.743 55.9974 41.5477 55.862 41.3055 55.7578C41.0633 55.6536 40.8016 55.5625 40.5204 55.4844L39.536 55.2031C38.911 55.0234 38.4162 54.7669 38.0516 54.4336C37.687 54.1003 37.5047 53.6641 37.5047 53.125C37.5047 52.6771 37.6258 52.2865 37.868 51.9531C38.1128 51.6172 38.4409 51.3568 38.8524 51.1719C39.2665 50.9844 39.7287 50.8906 40.2391 50.8906C40.7547 50.8906 41.2131 50.9831 41.6141 51.168C42.0152 51.3503 42.3329 51.6003 42.5672 51.918C42.8042 52.2357 42.9292 52.5964 42.9422 53H42.0047Z" fill="#898A8D"/>
<path d="M24 0.5H39C47.0081 0.5 53.5 6.99187 53.5 15V31C53.5 39.0081 47.0081 45.5 39 45.5H24C15.9919 45.5 9.5 39.0081 9.5 31V15C9.5 6.99187 15.9919 0.5 24 0.5Z" stroke="#DADADA"/>
<path d="M43.8332 33H42.2915V31.5" stroke="#C1121F" stroke-linecap="round" stroke-linejoin="round"/>
<path d="M42.2915 15H20.7082C19.8567 15 19.1665 15.6716 19.1665 16.5V31.5C19.1665 32.3284 19.8567 33 20.7082 33H42.2915C43.1429 33 43.8332 32.3284 43.8332 31.5V16.5C43.8332 15.6716 43.1429 15 42.2915 15Z" stroke="#C1121F" stroke-linecap="round" stroke-linejoin="round"/>
<path d="M31.5002 19.5C29.1877 19.5 27.646 20.25 27.646 21.75C27.646 23.25 29.1877 24 31.5002 24C33.8127 24 35.3543 24.75 35.3543 26.25C35.3543 27.75 33.8127 28.5 31.5002 28.5" stroke="#C1121F" stroke-linecap="round" stroke-linejoin="round"/>
<path d="M31.5 16.5V31.5" stroke="#C1121F" stroke-linecap="round" stroke-linejoin="round"/>
<path d="M22.25 18H28.4167" stroke="#C1121F" stroke-linecap="round" stroke-linejoin="round"/>
<path d="M22.25 21H25.3333" stroke="#C1121F" stroke-linecap="round" stroke-linejoin="round"/>
</svg>
