<svg width="66" height="62" viewBox="0 0 66 62" fill="none" xmlns="http://www.w3.org/2000/svg">
<path d="M23.5675 60V52H28.3956V52.8594H24.5363V55.5625H28.1456V56.4219H24.5363V59.1406H28.4581V60H23.5675ZM34.4067 54C34.3599 53.6042 34.1698 53.2969 33.8364 53.0781C33.5031 52.8594 33.0942 52.75 32.6099 52.75C32.2557 52.75 31.9458 52.8073 31.6802 52.9219C31.4172 53.0365 31.2114 53.194 31.063 53.3945C30.9172 53.5951 30.8442 53.8229 30.8442 54.0781C30.8442 54.2917 30.895 54.4753 30.9966 54.6289C31.1007 54.7799 31.2336 54.9062 31.395 55.0078C31.5565 55.1068 31.7257 55.1888 31.9028 55.2539C32.0799 55.3164 32.2427 55.3672 32.3911 55.4062L33.2036 55.625C33.4119 55.6797 33.6437 55.7552 33.8989 55.8516C34.1567 55.9479 34.4028 56.0794 34.6372 56.2461C34.8742 56.4102 35.0695 56.6211 35.2231 56.8789C35.3768 57.1367 35.4536 57.4531 35.4536 57.8281C35.4536 58.2604 35.3403 58.651 35.1138 59C34.8898 59.349 34.5617 59.6263 34.1294 59.832C33.6997 60.0378 33.1776 60.1406 32.563 60.1406C31.9901 60.1406 31.494 60.0482 31.0747 59.8633C30.658 59.6784 30.3299 59.4206 30.0903 59.0898C29.8534 58.7591 29.7192 58.375 29.688 57.9375H30.688C30.714 58.2396 30.8156 58.4896 30.9927 58.6875C31.1724 58.8828 31.3989 59.0286 31.6724 59.125C31.9484 59.2187 32.2453 59.2656 32.563 59.2656C32.9328 59.2656 33.2648 59.2057 33.5591 59.0859C33.8534 58.9635 34.0864 58.7943 34.2583 58.5781C34.4302 58.3594 34.5161 58.1042 34.5161 57.8125C34.5161 57.5469 34.4419 57.3307 34.2935 57.1641C34.145 56.9974 33.9497 56.862 33.7075 56.7578C33.4653 56.6536 33.2036 56.5625 32.9224 56.4844L31.938 56.2031C31.313 56.0234 30.8182 55.7669 30.4536 55.4336C30.089 55.1003 29.9067 54.6641 29.9067 54.125C29.9067 53.6771 30.0278 53.2865 30.27 52.9531C30.5148 52.6172 30.8429 52.3568 31.2544 52.1719C31.6685 51.9844 32.1307 51.8906 32.6411 51.8906C33.1567 51.8906 33.6151 51.9831 34.0161 52.168C34.4172 52.3503 34.7349 52.6003 34.9692 52.918C35.2062 53.2357 35.3312 53.5964 35.3442 54H34.4067ZM37.2645 60H36.2489L39.1864 52H40.1864L43.1239 60H42.1083L39.7176 53.2656H39.6551L37.2645 60ZM37.6395 56.875H41.7333V57.7344H37.6395V56.875Z" fill="#898A8D"/>
<path d="M24 0.5H39C47.0081 0.5 53.5 6.99187 53.5 15V31C53.5 39.0081 47.0081 45.5 39 45.5H24C15.9919 45.5 9.5 39.0081 9.5 31V15C9.5 6.99187 15.9919 0.5 24 0.5Z" stroke="#DADADA"/>
<path d="M24.7502 23H21.8335V34.3333H24.7502V23Z" stroke="#C1121F" stroke-linecap="round" stroke-linejoin="round"/>
<path d="M30.5832 25.8333H27.6665V34.3333H30.5832V25.8333Z" stroke="#C1121F" stroke-linecap="round" stroke-linejoin="round"/>
<path d="M36.4167 20.1667H33.5V34.3334H36.4167V20.1667Z" stroke="#C1121F" stroke-linecap="round" stroke-linejoin="round"/>
<path d="M42.2502 17.3333H39.3335V34.3333H42.2502V17.3333Z" stroke="#C1121F" stroke-linecap="round" stroke-linejoin="round"/>
<path d="M21.104 17.3333L28.3957 13.0833L34.229 18.7499L41.5207 8.83325" stroke="#C1121F" stroke-linecap="round" stroke-linejoin="round"/>
<path d="M42.2456 14.1067L42.4792 8.34825L36.6504 8.12508" stroke="#C1121F" stroke-linecap="round" stroke-linejoin="round"/>
</svg>
