<svg width="23" height="23" viewBox="0 0 23 23" fill="none" xmlns="http://www.w3.org/2000/svg">
<circle cx="11.5" cy="11.5" r="10.5" stroke="#979797" stroke-width="2"/>
<path d="M10.8636 14.831V14.4474C10.8684 13.6993 10.9512 13.0909 11.1122 12.6222C11.2732 12.1534 11.5099 11.758 11.8224 11.4361C12.1397 11.1094 12.5327 10.7969 13.0014 10.4986C13.3518 10.2713 13.6454 10.0322 13.8821 9.78125C14.1236 9.52557 14.3059 9.24621 14.429 8.94318C14.5568 8.63542 14.6207 8.30161 14.6207 7.94176C14.6207 7.4304 14.5 6.98295 14.2585 6.59943C14.0218 6.21591 13.6998 5.91998 13.2926 5.71165C12.8854 5.49858 12.4332 5.39205 11.9361 5.39205C11.4626 5.39205 11.0199 5.49621 10.608 5.70455C10.2008 5.90814 9.86695 6.21117 9.60653 6.61364C9.35085 7.01136 9.21117 7.50379 9.1875 8.09091H7.84517C7.86884 7.30966 8.06297 6.63258 8.42756 6.05966C8.79214 5.48674 9.27983 5.04403 9.89062 4.73153C10.5014 4.4143 11.1832 4.25568 11.9361 4.25568C12.7221 4.25568 13.4134 4.41903 14.0099 4.74574C14.6065 5.06771 15.0729 5.51042 15.4091 6.07386C15.7453 6.63258 15.9134 7.27415 15.9134 7.99858C15.9134 8.4768 15.8376 8.91241 15.6861 9.3054C15.5346 9.69839 15.3073 10.0606 15.0043 10.392C14.706 10.7235 14.3319 11.036 13.8821 11.3295C13.456 11.6136 13.1174 11.8954 12.8665 12.1747C12.6155 12.4541 12.4356 12.7737 12.3267 13.1335C12.2178 13.4886 12.1586 13.9266 12.1491 14.4474V14.831H10.8636ZM11.5455 19.1065C11.2661 19.1065 11.0246 19.0071 10.821 18.8082C10.6222 18.6046 10.5227 18.3632 10.5227 18.0838C10.5227 17.7997 10.6222 17.5582 10.821 17.3594C11.0246 17.1605 11.2661 17.0611 11.5455 17.0611C11.8248 17.0611 12.0639 17.1605 12.2628 17.3594C12.4664 17.5582 12.5682 17.7997 12.5682 18.0838C12.5682 18.2685 12.5208 18.4389 12.4261 18.5952C12.3362 18.7514 12.2131 18.8769 12.0568 18.9716C11.9053 19.0616 11.7348 19.1065 11.5455 19.1065Z" fill="#979797"/>
</svg>
