<svg width="89" height="25" viewBox="0 0 89 25" fill="none" xmlns="http://www.w3.org/2000/svg">
<path d="M12.5 1H76.5C82.8513 1 88 6.14873 88 12.5C88 18.8513 82.8513 24 76.5 24H12.5C6.14873 24 1 18.8513 1 12.5C1 6.14873 6.14873 1 12.5 1Z" stroke="#979797" stroke-width="2"/>
<path d="M18.8608 17V8.27273H20.4418V15.6747H24.2855V17H18.8608ZM33.1161 12.6364C33.1161 13.5767 32.94 14.3821 32.5877 15.0526C32.2383 15.7202 31.761 16.2315 31.1559 16.5866C30.5536 16.9418 29.8704 17.1193 29.1062 17.1193C28.342 17.1193 27.6573 16.9418 27.0522 16.5866C26.4499 16.2287 25.9727 15.7159 25.6204 15.0483C25.271 14.3778 25.0962 13.5739 25.0962 12.6364C25.0962 11.696 25.271 10.892 25.6204 10.2244C25.9727 9.55398 26.4499 9.04119 27.0522 8.68608C27.6573 8.33097 28.342 8.15341 29.1062 8.15341C29.8704 8.15341 30.5536 8.33097 31.1559 8.68608C31.761 9.04119 32.2383 9.55398 32.5877 10.2244C32.94 10.892 33.1161 11.696 33.1161 12.6364ZM31.5266 12.6364C31.5266 11.9744 31.4229 11.4162 31.2156 10.9616C31.011 10.5043 30.7269 10.1591 30.3633 9.92614C29.9996 9.69034 29.5806 9.57244 29.1062 9.57244C28.6317 9.57244 28.2127 9.69034 27.8491 9.92614C27.4854 10.1591 27.1999 10.5043 26.9925 10.9616C26.788 11.4162 26.6857 11.9744 26.6857 12.6364C26.6857 13.2983 26.788 13.858 26.9925 14.3153C27.1999 14.7699 27.4854 15.1151 27.8491 15.3509C28.2127 15.5838 28.6317 15.7003 29.1062 15.7003C29.5806 15.7003 29.9996 15.5838 30.3633 15.3509C30.7269 15.1151 31.011 14.7699 31.2156 14.3153C31.4229 13.858 31.5266 13.2983 31.5266 12.6364ZM40.4574 11.0597C40.3864 10.8295 40.2884 10.6236 40.1634 10.4418C40.0412 10.2571 39.8935 10.0994 39.7202 9.96875C39.5497 9.83807 39.3537 9.74006 39.1321 9.67472C38.9105 9.60653 38.669 9.57244 38.4077 9.57244C37.9389 9.57244 37.5213 9.69034 37.1548 9.92614C36.7884 10.1619 36.5 10.5085 36.2898 10.9659C36.0824 11.4205 35.9787 11.9744 35.9787 12.6278C35.9787 13.2869 36.0824 13.8452 36.2898 14.3026C36.4972 14.7599 36.7855 15.108 37.1548 15.3466C37.5241 15.5824 37.9531 15.7003 38.4418 15.7003C38.8849 15.7003 39.2685 15.6151 39.5923 15.4446C39.919 15.2741 40.1705 15.0327 40.3466 14.7202C40.5227 14.4048 40.6108 14.0355 40.6108 13.6122L40.9688 13.6676H38.5994V12.4318H42.1406V13.4801C42.1406 14.2273 41.9815 14.8736 41.6634 15.419C41.3452 15.9645 40.9077 16.3849 40.3509 16.6804C39.794 16.973 39.1548 17.1193 38.4332 17.1193C37.6293 17.1193 36.9233 16.9389 36.3153 16.5781C35.7102 16.2145 35.2372 15.6989 34.8963 15.0312C34.5582 14.3608 34.3892 13.5653 34.3892 12.6449C34.3892 11.9403 34.4886 11.3111 34.6875 10.7571C34.8892 10.2031 35.1705 9.73295 35.5312 9.34659C35.892 8.95739 36.3153 8.66193 36.8011 8.46023C37.2869 8.25568 37.8153 8.15341 38.3864 8.15341C38.8693 8.15341 39.3196 8.22443 39.7372 8.36648C40.1548 8.50568 40.5256 8.70455 40.8494 8.96307C41.1761 9.22159 41.4446 9.52841 41.6548 9.88352C41.8651 10.2386 42.0028 10.6307 42.0682 11.0597H40.4574ZM54.4442 12.6364C54.4442 13.5767 54.2681 14.3821 53.9158 15.0526C53.5664 15.7202 53.0891 16.2315 52.484 16.5866C51.8817 16.9418 51.1985 17.1193 50.4343 17.1193C49.6701 17.1193 48.9854 16.9418 48.3803 16.5866C47.7781 16.2287 47.3008 15.7159 46.9485 15.0483C46.5991 14.3778 46.4244 13.5739 46.4244 12.6364C46.4244 11.696 46.5991 10.892 46.9485 10.2244C47.3008 9.55398 47.7781 9.04119 48.3803 8.68608C48.9854 8.33097 49.6701 8.15341 50.4343 8.15341C51.1985 8.15341 51.8817 8.33097 52.484 8.68608C53.0891 9.04119 53.5664 9.55398 53.9158 10.2244C54.2681 10.892 54.4442 11.696 54.4442 12.6364ZM52.8548 12.6364C52.8548 11.9744 52.7511 11.4162 52.5437 10.9616C52.3391 10.5043 52.055 10.1591 51.6914 9.92614C51.3278 9.69034 50.9087 9.57244 50.4343 9.57244C49.9599 9.57244 49.5408 9.69034 49.1772 9.92614C48.8136 10.1591 48.5281 10.5043 48.3207 10.9616C48.1161 11.4162 48.0138 11.9744 48.0138 12.6364C48.0138 13.2983 48.1161 13.858 48.3207 14.3153C48.5281 14.7699 48.8136 15.1151 49.1772 15.3509C49.5408 15.5838 49.9599 15.7003 50.4343 15.7003C50.9087 15.7003 51.3278 15.5838 51.6914 15.3509C52.055 15.1151 52.3391 14.7699 52.5437 14.3153C52.7511 13.858 52.8548 13.2983 52.8548 12.6364ZM61.4403 8.27273H63.0213V13.9744C63.0213 14.5994 62.8736 15.1491 62.5781 15.6236C62.2855 16.098 61.8736 16.4687 61.3423 16.7358C60.8111 17 60.1903 17.1321 59.4801 17.1321C58.767 17.1321 58.1449 17 57.6136 16.7358C57.0824 16.4687 56.6705 16.098 56.3778 15.6236C56.0852 15.1491 55.9389 14.5994 55.9389 13.9744V8.27273H57.5199V13.8423C57.5199 14.206 57.5994 14.5298 57.7585 14.8139C57.9205 15.098 58.1477 15.321 58.4403 15.483C58.733 15.642 59.0795 15.7216 59.4801 15.7216C59.8807 15.7216 60.2273 15.642 60.5199 15.483C60.8153 15.321 61.0426 15.098 61.2017 14.8139C61.3608 14.5298 61.4403 14.206 61.4403 13.8423V8.27273ZM64.3562 9.59801V8.27273H71.3192V9.59801H68.6218V17H67.0536V9.59801H64.3562Z" fill="#979797"/>
</svg>
