<svg width="68" height="12" viewBox="0 0 68 12" fill="none" xmlns="http://www.w3.org/2000/svg">
<path opacity="0.35" d="M45.667 0.833374H62.333C63.5296 0.833374 64.5 1.80375 64.5 3.00037V9.00037C64.4998 10.1968 63.5295 11.1664 62.333 11.1664H45.667C44.4705 11.1664 43.5002 10.1968 43.5 9.00037V3.00037L43.5107 2.77869C43.6216 1.68603 44.5451 0.833374 45.667 0.833374Z" stroke="black"/>
<path opacity="0.4" d="M66 4V8C66.8047 7.66122 67.328 6.87313 67.328 6C67.328 5.12687 66.8047 4.33878 66 4Z" fill="black"/>
<path d="M45 3.66671C45 2.93033 45.597 2.33337 46.3333 2.33337H61.6667C62.403 2.33337 63 2.93033 63 3.66671V8.33337C63 9.06975 62.403 9.66671 61.6667 9.66671H46.3333C45.597 9.66671 45 9.06975 45 8.33337V3.66671Z" fill="black"/>
<path d="M28.1201 8.73114C29.3957 7.65226 31.2645 7.65226 32.54 8.73114C32.6041 8.78916 32.6408 8.8713 32.6426 8.9577C32.6443 9.04416 32.6106 9.1276 32.5488 9.18817L30.5518 11.2038C30.4932 11.263 30.4133 11.2965 30.3301 11.2966C30.2468 11.2966 30.1669 11.263 30.1084 11.2038L28.1104 9.18817C28.0488 9.12758 28.0148 9.04408 28.0166 8.9577C28.0184 8.87126 28.056 8.78912 28.1201 8.73114ZM25.4551 6.04169C28.2032 3.48564 32.4589 3.4857 35.207 6.04169C35.269 6.10154 35.3047 6.18408 35.3057 6.2702C35.3065 6.35639 35.2726 6.43949 35.2119 6.50067L34.0576 7.66766C33.9387 7.78677 33.7461 7.78943 33.624 7.67352C32.7216 6.85633 31.5475 6.40394 30.3301 6.40399C29.1134 6.4045 27.94 6.85685 27.0381 7.67352C26.9161 7.78927 26.7244 7.78654 26.6055 7.66766L25.4502 6.50067C25.3895 6.43961 25.3556 6.35629 25.3565 6.2702C25.3574 6.18408 25.3931 6.10152 25.4551 6.04169ZM22.79 3.36005C27.0052 -0.679139 33.6552 -0.679381 37.8701 3.36005C37.931 3.41999 37.9653 3.50213 37.9658 3.58758C37.9663 3.67315 37.9324 3.75538 37.8721 3.8161L36.7168 4.98309C36.5977 5.10281 36.4041 5.1039 36.2832 4.98602C34.6773 3.45929 32.5459 2.60821 30.3301 2.60809C28.114 2.60809 25.9821 3.45913 24.376 4.98602C24.2552 5.10402 24.0624 5.10281 23.9434 4.98309L22.7871 3.8161C22.7269 3.75533 22.6928 3.67317 22.6934 3.58758C22.694 3.50208 22.729 3.41997 22.79 3.36005Z" fill="black"/>
<path d="M2.66699 7.33362C3.21914 7.33378 3.66699 7.78144 3.66699 8.33362V10.3336C3.66682 10.8857 3.21903 11.3335 2.66699 11.3336H1.66699C1.11482 11.3336 0.667168 10.8858 0.666992 10.3336V8.33362C0.666992 7.78133 1.11471 7.33362 1.66699 7.33362H2.66699ZM7.33301 5.33362C7.88529 5.33362 8.33301 5.78133 8.33301 6.33362V10.3336C8.33283 10.8858 7.88518 11.3336 7.33301 11.3336H6.33301C5.78099 11.3334 5.33318 10.8856 5.33301 10.3336V6.33362C5.33301 5.78145 5.78088 5.3338 6.33301 5.33362H7.33301ZM12 2.99963C12.5522 2.99963 12.9998 3.4475 13 3.99963V10.3336C12.9998 10.8858 12.5522 11.3336 12 11.3336H11C10.4478 11.3336 10.0002 10.8857 10 10.3336V3.99963C10.0002 3.44751 10.4478 2.99965 11 2.99963H12ZM16.667 0.666626C17.2191 0.666791 17.667 1.11444 17.667 1.66663V10.3336C17.6668 10.8857 17.219 11.3335 16.667 11.3336H15.667C15.1148 11.3336 14.6672 10.8858 14.667 10.3336V1.66663C14.667 1.11434 15.1147 0.666626 15.667 0.666626H16.667Z" fill="black"/>
</svg>
