<svg width="66" height="62" viewBox="0 0 66 62" fill="none" xmlns="http://www.w3.org/2000/svg">
<path d="M27.3517 54C27.3048 53.6042 27.1147 53.2969 26.7814 53.0781C26.4481 52.8594 26.0392 52.75 25.5548 52.75C25.2007 52.75 24.8908 52.8073 24.6251 52.9219C24.3621 53.0365 24.1564 53.194 24.0079 53.3945C23.8621 53.5951 23.7892 53.8229 23.7892 54.0781C23.7892 54.2917 23.84 54.4753 23.9415 54.6289C24.0457 54.7799 24.1785 54.9062 24.34 55.0078C24.5014 55.1068 24.6707 55.1888 24.8478 55.2539C25.0249 55.3164 25.1876 55.3672 25.3361 55.4062L26.1486 55.625C26.3569 55.6797 26.5887 55.7552 26.8439 55.8516C27.1017 55.9479 27.3478 56.0794 27.5822 56.2461C27.8191 56.4102 28.0145 56.6211 28.1681 56.8789C28.3218 57.1367 28.3986 57.4531 28.3986 57.8281C28.3986 58.2604 28.2853 58.651 28.0587 59C27.8348 59.349 27.5066 59.6263 27.0744 59.832C26.6447 60.0378 26.1225 60.1406 25.5079 60.1406C24.935 60.1406 24.4389 60.0482 24.0197 59.8633C23.603 59.6784 23.2749 59.4206 23.0353 59.0898C22.7983 58.7591 22.6642 58.375 22.6329 57.9375H23.6329C23.659 58.2396 23.7606 58.4896 23.9376 58.6875C24.1173 58.8828 24.3439 59.0286 24.6173 59.125C24.8934 59.2187 25.1902 59.2656 25.5079 59.2656C25.8777 59.2656 26.2098 59.2057 26.504 59.0859C26.7983 58.9635 27.0314 58.7943 27.2033 58.5781C27.3751 58.3594 27.4611 58.1042 27.4611 57.8125C27.4611 57.5469 27.3869 57.3307 27.2384 57.1641C27.09 56.9974 26.8947 56.862 26.6525 56.7578C26.4103 56.6536 26.1486 56.5625 25.8673 56.4844L24.883 56.2031C24.2579 56.0234 23.7632 55.7669 23.3986 55.4336C23.034 55.1003 22.8517 54.6641 22.8517 54.125C22.8517 53.6771 22.9728 53.2865 23.215 52.9531C23.4598 52.6172 23.7879 52.3568 24.1994 52.1719C24.6134 51.9844 25.0757 51.8906 25.5861 51.8906C26.1017 51.8906 26.56 51.9831 26.9611 52.168C27.3621 52.3503 27.6798 52.6003 27.9142 52.918C28.1512 53.2357 28.2762 53.5964 28.2892 54H27.3517ZM35.3501 54.5C35.2642 54.237 35.1509 54.0013 35.0103 53.793C34.8722 53.582 34.7069 53.4023 34.5142 53.2539C34.3241 53.1055 34.1079 52.9922 33.8657 52.9141C33.6235 52.8359 33.3579 52.7969 33.0688 52.7969C32.5949 52.7969 32.1639 52.9193 31.7759 53.1641C31.3879 53.4089 31.0793 53.7695 30.8501 54.2461C30.6209 54.7227 30.5063 55.3073 30.5063 56C30.5063 56.6927 30.6222 57.2773 30.854 57.7539C31.0858 58.2305 31.3996 58.5911 31.7954 58.8359C32.1912 59.0807 32.6366 59.2031 33.1313 59.2031C33.5897 59.2031 33.9933 59.1055 34.3423 58.9102C34.6938 58.7122 34.9673 58.4336 35.1626 58.0742C35.3605 57.7122 35.4595 57.2865 35.4595 56.7969L35.7563 56.8594H33.3501V56H36.397V56.8594C36.397 57.5182 36.2563 58.0911 35.9751 58.5781C35.6965 59.0651 35.311 59.4427 34.8188 59.7109C34.3293 59.9766 33.7668 60.1094 33.1313 60.1094C32.423 60.1094 31.8006 59.9427 31.2642 59.6094C30.7303 59.276 30.3136 58.8021 30.0142 58.1875C29.7173 57.5729 29.5688 56.8437 29.5688 56C29.5688 55.3672 29.6535 54.7982 29.8228 54.293C29.9946 53.7852 30.2368 53.3529 30.5493 52.9961C30.8618 52.6393 31.2316 52.3659 31.6587 52.1758C32.0858 51.9857 32.5558 51.8906 33.0688 51.8906C33.4907 51.8906 33.884 51.9544 34.2485 52.082C34.6157 52.207 34.9425 52.3854 35.229 52.6172C35.5181 52.8464 35.759 53.1211 35.9517 53.4414C36.1444 53.7591 36.2772 54.112 36.3501 54.5H35.3501ZM42.3212 54C42.2743 53.6042 42.0842 53.2969 41.7508 53.0781C41.4175 52.8594 41.0087 52.75 40.5243 52.75C40.1701 52.75 39.8602 52.8073 39.5946 52.9219C39.3316 53.0365 39.1258 53.194 38.9774 53.3945C38.8316 53.5951 38.7587 53.8229 38.7587 54.0781C38.7587 54.2917 38.8094 54.4753 38.911 54.6289C39.0152 54.7799 39.148 54.9062 39.3094 55.0078C39.4709 55.1068 39.6402 55.1888 39.8172 55.2539C39.9943 55.3164 40.1571 55.3672 40.3055 55.4062L41.118 55.625C41.3264 55.6797 41.5581 55.7552 41.8133 55.8516C42.0712 55.9479 42.3172 56.0794 42.5516 56.2461C42.7886 56.4102 42.9839 56.6211 43.1376 56.8789C43.2912 57.1367 43.368 57.4531 43.368 57.8281C43.368 58.2604 43.2547 58.651 43.0282 59C42.8042 59.349 42.4761 59.6263 42.0438 59.832C41.6141 60.0378 41.092 60.1406 40.4774 60.1406C39.9045 60.1406 39.4084 60.0482 38.9891 59.8633C38.5725 59.6784 38.2443 59.4206 38.0047 59.0898C37.7678 58.7591 37.6337 58.375 37.6024 57.9375H38.6024C38.6284 58.2396 38.73 58.4896 38.9071 58.6875C39.0868 58.8828 39.3133 59.0286 39.5868 59.125C39.8628 59.2187 40.1597 59.2656 40.4774 59.2656C40.8472 59.2656 41.1792 59.2057 41.4735 59.0859C41.7678 58.9635 42.0008 58.7943 42.1727 58.5781C42.3446 58.3594 42.4305 58.1042 42.4305 57.8125C42.4305 57.5469 42.3563 57.3307 42.2079 57.1641C42.0594 56.9974 41.8641 56.862 41.6219 56.7578C41.3797 56.6536 41.118 56.5625 40.8368 56.4844L39.8524 56.2031C39.2274 56.0234 38.7326 55.7669 38.368 55.4336C38.0034 55.1003 37.8212 54.6641 37.8212 54.125C37.8212 53.6771 37.9422 53.2865 38.1844 52.9531C38.4292 52.6172 38.7573 52.3568 39.1688 52.1719C39.5829 51.9844 40.0451 51.8906 40.5555 51.8906C41.0712 51.8906 41.5295 51.9831 41.9305 52.168C42.3316 52.3503 42.6493 52.6003 42.8837 52.918C43.1206 53.2357 43.2456 53.5964 43.2587 54H42.3212Z" fill="#898A8D"/>
<path d="M20.3335 9.66675H36.3335L41.6668 15.0001V36.3334H20.3335V9.66675Z" stroke="#C1121F" stroke-linecap="round" stroke-linejoin="round"/>
<path d="M36.3335 9.66675V15.0001H41.6668" stroke="#C1121F" stroke-linecap="round" stroke-linejoin="round"/>
<path d="M26.3335 23H24.3335V28.3333H26.3335V23Z" stroke="#C1121F" stroke-linecap="round" stroke-linejoin="round"/>
<path d="M30.3335 20.3333H28.3335V28.3333H30.3335V20.3333Z" stroke="#C1121F" stroke-linecap="round" stroke-linejoin="round"/>
<path d="M34.3335 17.6667H32.3335V28.3334H34.3335V17.6667Z" stroke="#C1121F" stroke-linecap="round" stroke-linejoin="round"/>
<path d="M23 21.6667L27 19L31 16.3333L35 15" stroke="#C1121F" stroke-linecap="round" stroke-linejoin="round"/>
<path d="M23 31H33.6667" stroke="#C1121F" stroke-linecap="round" stroke-linejoin="round"/>
<path d="M23 33.6667H31" stroke="#C1121F" stroke-linecap="round" stroke-linejoin="round"/>
<path d="M23 0.5H38C46.0081 0.5 52.5 6.99187 52.5 15V31C52.5 39.0081 46.0081 45.5 38 45.5H23C14.9919 45.5 8.5 39.0081 8.5 31V15C8.5 6.99187 14.9919 0.5 23 0.5Z" stroke="#DADADA"/>
</svg>
